<?xml version="1.0" encoding="utf-8"?>
<!-- Generator: Adobe Illustrator 16.0.3, SVG Export Plug-In . SVG Version: 6.00 Build 0)  -->
<!DOCTYPE svg PUBLIC "-//W3C//DTD SVG 1.1//EN" "http://www.w3.org/Graphics/SVG/1.1/DTD/svg11.dtd">
<svg version="1.1" id="BAN_Logo" xmlns="http://www.w3.org/2000/svg" xmlns:xlink="http://www.w3.org/1999/xlink" x="0px" y="0px"
	 width="810px" height="371.23px" viewBox="0 0 810 371.23" enable-background="new 0 0 810 371.23" xml:space="preserve">
<path fill="#333333" d="M709.683,121.938l82.787-0.258c1.58,45.241,1.018,94.498,1.521,142.259l-84.318,0.218l-0.426-3.57H519.795
	l-8.799,7.432l-54.345-0.15l-9.826,7.923l-81.751-0.746l-8.488-6.788l-56.381-0.199l-7.984-6.26l-189.907-2.549l-0.621,5.068
	l-84.308-0.286l0.01-142.728l82.273,0.746l14.352-6.295l188.444-0.02l0.077-3.551l205.189,0.339l0.949,3.077l189.472-0.51
	L709.683,121.938z M496.993,115.846l-3.063,0.446l0.242,83.306l2.539,0.049L496.993,115.846z M504.106,115.996l-3.566,0.441
	l0.756,82.807l2.549-0.456L504.106,115.996z M489.376,115.687l-3.052,0.437l-0.466,21.832L468.57,138.6l-0.543-22.355l-2.548,0.455
	l0.252,82.791l1.531,0.029l1.337-38.573c0.067-3.033,4.196-6.003,8.266-6.42c1.551-1.487,7.084,1.173,9.003,6.294l1.202,38.617
	l2.529,0.566L489.376,115.687z M440.332,199.457l5.592,0.121l-0.746-83.315l-5.078-0.111l-0.465,21.833l-17.783,0.121l-0.542-22.361
	l-6.096,0.379l-0.484,22.336l-17.772-0.377l-0.02-22.348l-6.609-0.135l-0.484,22.83l-18.267-0.891l0.959-21.314l-7.598-0.669
	l0.747,83.823l5.581,0.117l0.795-37.063c0.61-4.555,4.758-8.532,8.809-7.937c4.574-0.407,9.042,4.255,8.431,9.327l0.252,35.555
	l7.113,0.16l0.281-37.076c0.106-4.574,4.244-8.038,8.285-7.442c4.594-0.911,9.07,3.247,8.964,8.319l0.746,36.078l6.6,0.141
	l0.281-36.558c0.106-5.083,4.264-9.062,9.322-8.445c4.574,0.102,8.537,4.763,8.44,9.327L440.332,199.457z M454.044,199.748
	l-0.746-83.315l-3.053-0.067l-0.242,82.791L454.044,199.748z M460.401,116.582l-2.025-0.038l-0.252,82.777l2.539,0.063
	L460.401,116.582z M361.111,199.273l-0.232-83.297l-3.063-0.067l-0.271,83.8L361.111,199.273z M345.858,199.971l0.29-84.318
	l-3.062,0.445l-0.485,22.338l-17.763-0.379l-0.028-22.355l-3.557,0.436l0.232,83.306l3.063,0.073l0.804-38.084
	c0.087-3.557,4.216-7.017,8.276-6.93c4.06,0.088,8.566,3.227,9.525,6.289l-0.339,39.111L345.858,199.971z M353.484,199.617
	l0.281-83.8l-3.557-0.067l0.223,84.313L353.484,199.617z M774.388,136.031l0.232-10.669l-13.703-0.296l0.262,11.184L774.388,136.031
	z M782.169,199.68l0.077-74.661l-3.565,0.427l-0.059,73.653L782.169,199.68z M789.282,199.331l0.058-73.649l-3.043-0.072
	l-0.058,73.654L789.282,199.331z M310.826,199.22l-0.756-83.315l-3.547-0.078l0.233,83.811L310.826,199.22z M317.939,199.369
	l-0.252-83.305l-3.537-0.586l0.232,83.813L317.939,199.369z M749.676,199.496l-0.455-73.658l-3.053-0.068l-0.058,73.648
	L749.676,199.496z M756.77,199.646l-0.455-73.659l-3.043-0.067l-0.059,73.648L756.77,199.646z M720.711,199.369l3.557,0.083
	l-0.456-73.663l-2.529-0.049L720.711,199.369z M742.098,126.186l-13.702-0.285l-0.223,10.15l12.694,0.268L742.098,126.186z
	 M713.104,199.22l4.061,0.077l-0.969-73.154l-3.043-0.068L713.104,199.22z M82.583,136.924l0.242-11.174l-14.216-0.305l0.271,11.183
	L82.583,136.924z M90.384,199.563l-0.446-73.658l-3.557-0.077l0.456,73.148L90.384,199.563z M94.444,199.65l3.557,0.068
	l-0.446-73.648l-3.053-0.068L94.444,199.65z M50.09,136.734l-0.271-11.188l-13.208,0.232l-0.756,11.154L50.09,136.734z
	 M57.368,199.355l0.078-74.152l-3.566,0.436l-0.068,74.152L57.368,199.355z M64.985,199.52l-0.446-73.648l-3.042-0.072
	l-0.059,73.648L64.985,199.52z M24.352,199.67l0.068-74.152l-3.556,0.426l0.445,73.659L24.352,199.67z M31.969,199.835l0.058-73.653
	l-3.547-0.586l-0.058,73.652L31.969,199.835z M705.613,145.723l0.571-3.038l-196.061,0.368c0.465,1.526,0.465,2.045,0.959,2.559
	L705.613,145.723z M774.833,162.448l-0.242-12.195l-14.216-0.31l0.756,12.205L774.833,162.448z M742.098,149.551l-13.712,0.223
	l0.213,13.203l12.725-0.741L742.098,149.551z M705.981,199.568l0.562-49.766l-196.574,0.357l0.475,49.277l17.27-0.136l0.813-38.079
	c0.067-3.043,4.206-6.518,8.257-6.43c3.071-0.949,8.092,2.215,9.506,6.808l-0.31,38.099l17.792-0.64l0.271-36.059
	c0.61-5.073,5.262-8.522,9.322-8.437c4.069-0.416,8.557,3.741,8.44,8.814l0.252,36.068l16.745,0.358l0.814-38.074
	c0.601-4.051,4.748-8.028,8.818-7.941c4.574-0.402,9.564,3.765,9.468,8.339l0.213,37.081l16.241,0.349l0.785-36.558
	c-0.388-5.597,4.273-9.052,9.352-9.448c3.053-0.445,7.549,3.217,8.46,7.801l0.717,38.113l17.259,0.368l0.311-38.085
	c1.134-5.566,5.785-9.031,8.809-7.936c3.566-0.441,8.053,3.212,8.983,7.302l0.185,38.603L705.981,199.568z M105.308,143.504
	l-0.572,2.529l196.051,0.14l-0.437-3.058L105.308,143.504z M282.879,200.141l17.792-0.635l0.058-50.28l-196.051-0.15l-0.058,50.28
	l17.753,0.387l0.3-37.59c0.097-4.564,4.768-8.522,8.809-7.926c4.07-0.427,8.557,3.74,8.45,8.813l0.223,36.578l17.782-0.131
	l0.252-35.041c-1.405-5.616,2.762-10.607,8.857-10.477c4.574,0.098,9.022,5.277,8.411,10.34l0.775,35.07l16.746,0.354l0.775-36.049
	c-0.388-5.586,4.273-10.063,8.838-9.457c4.584-0.408,9.042,4.762,8.935,9.846l-0.262,35.545L229.038,200l0.62-28.946
	c-0.417-4.065,3.741-8.552,7.801-8.46c5.097-0.906,10.088,3.261,9.477,8.334l0.407,28.451l17.249,0.363l0.126-28.945
	c-0.417-4.584,4.245-8.543,9.303-7.927c4.564,0.605,8.547,4.244,7.956,7.786L282.879,200.141z M82.544,162.318l0.271-12.187
	L68.58,150.33l0.262,11.691L82.544,162.318z M36.339,161.833l13.703,0.291l-0.252-11.683l-13.199-0.285L36.339,161.833z
	 M790.019,259.781l-0.417-51.811l-3.557,0.426l0.417,51.82L790.019,259.781z M757.1,208.29l-3.566-0.077l-0.087,51.806l3.042,0.063
	L757.1,208.29z M781.994,207.801l-3.565,0.426l0.416,51.82l3.547,0.083L781.994,207.801z M706.32,254.936l-0.02-46.719
	l-195.547-0.141l0.523,46.738L706.32,254.936z M749.386,259.932l0.601-51.802l-4.07-0.087l0.417,51.82L749.386,259.932z
	 M713.414,208.363l-0.62,52.3l4.069-0.417l0.098-51.807L713.414,208.363z M724.083,208.086l-3.557-0.082l0.407,52.33l3.557,0.077
	L724.083,208.086z M450.188,214.395l55.866,0.18l-0.368-6.609l-55.372,0.34L450.188,214.395z M438.879,267.485l7.122,0.146
	l0.242-59.418l-81.246-0.219l0.232,59.428l6.096,0.141l0.116-52.833l17.782-0.116l0.388,52.828l6.096,0.131l0.126-53.328
	l17.782-0.13l0.378,53.337l6.618-0.363l-0.406-52.834l18.305-0.105L438.879,267.485z M362.438,208.455l-56.913,1.309l-0.097,4.573
	l55.372-0.335L362.438,208.455z M300.486,255.377l0.988-46.2l-17.259-0.887l-179.8,0.208l0.523,46.738L300.486,255.377z
	 M90.597,260.518l-0.417-51.816l-3.547-0.082l0.417,51.82L90.597,260.518z M97.71,260.673l0.61-52.306l-3.547-0.082l-0.097,51.811
	L97.71,260.673z M57.591,260.318l0.107-52.314l-3.547-0.082l-0.116,52.314L57.591,260.318z M64.694,260.475l0.116-52.315
	l-3.566,0.427l0.407,51.815L64.694,260.475z M24.575,260.12l0.097-51.811l-3.043-0.073l-0.61,52.311L24.575,260.12z M31.688,260.271
	l0.61-51.802l-3.566-0.077l-0.087,51.806L31.688,260.271z M469.007,260.004l0.542-24.876c1.115-5.054,5.747-7.999,9.294-7.413
	c3.053-0.445,7.549,3.203,7.966,7.777l0.988,24.919l18.79-0.112l0.397-42.139l-56.894,0.295l0.62,42.174L469.007,260.004z
	 M325.275,236.088c-0.397-5.078,4.264-9.037,9.322-8.422c4.08-0.426,8.033,4.226,7.956,8.295l0.484,24.393l17.782-0.131
	l0.892-41.627l-56.36-0.707l-0.397,42.145l19.798,0.426L325.275,236.088z M689.323,241.877c0.01-0.508-0.33-8.13-0.679-15.252
	c-4.903-8.228-14.061-7.414-17.802,1.139l0.194,14.23L689.323,241.877 M653.273,241.611c-0.396-5.093,0.224-10.66-0.193-14.734
	c-4.39-8.219-13.034-7.902-17.269-0.369c-0.63,6.082-0.805,13.693-0.32,15.229L653.273,241.611 M617.525,227.133
	c-3.401-7.693-12.017-8.387-17.269-0.367l-0.33,15.219l17.772,0.388L617.525,227.133z M582.145,242.11l0.32-14.716
	c-4.391-8.227-13.519-8.93-17.754-0.891l-0.329,15.229L582.145,242.11z M546.881,228.664c-0.407-4.588-4.885-8.745-9.478-7.82
	c-3.043-0.072-7.19,3.393-8.276,6.934l0.214,13.718l17.772,0.373L546.881,228.664z M282.278,228.063
	c-4.38-8.731-13.519-8.93-17.269-0.378l-0.3,14.221l17.269-0.141L282.278,228.063z M246.723,227.807
	c-4.371-9.24-13.005-9.419-17.25-0.877l-0.32,14.721l17.772,0.383L246.723,227.807z M211.381,241.775
	c0.601-4.555,0.252-11.682-0.194-14.738c-4.39-8.219-13.034-7.889-17.269,0.141c-0.591,3.541-0.737,10.645-0.31,14.221
	L211.381,241.775 M175.313,242.014l0.329-15.225c-4.39-8.223-13.034-7.897-17.269-0.377l-0.833,15.223L175.313,242.014z
	 M140.533,229.59c-0.407-5.092-4.884-9.25-8.954-8.823c-5.078-0.116-9.729,3.853-8.819,8.445l-0.765,12.177l17.753,0.881
	L140.533,229.59z"/>
<polygon fill="#333333" points="404.138,40.715 293.296,93.693 291.794,92.143 404.234,36.15 519.873,91.45 518.293,93.96 "/>
<path fill="#333333" d="M302.87,96.949l0.068-3.043l100.608-49.649l104.067,49.975l-0.059,3.048L302.87,96.949z M497.478,92.996
	l-94.038-43.662l-89.318,43.793l2.539,0.058L497.478,92.996z"/>
<path fill="#333333" d="M406.715,62.611l-0.048,2.035c0.494,0.513,2.529,0.557,3.547,0.067c2.529,0.567,4.002,3.135,3.953,5.679
	c0.96,2.559-1.628,4.535-4.671,4.463l-0.048,2.035c3.565-0.438,6.59,0.653,6.561,2.175c-0.563,2.529,0.397,5.087,1.899,6.13
	c-1.037,0.992-2.607,2.998-2.598,1.977c-1.482-1.042-2.994-2.094-3.498-2.104c-1.008-0.02-2.559,0.96-3.604,2.462
	c-1.551,1.487-5.611,1.405-8.121-0.169c0.029-1.023-1.986-2.074-3.518-2.118c-1.521-0.028-3.072,1.464-3.605,2.472l-2.48-2.598
	c1.018,0.029,2.064-1.478,2.093-2.999c-0.939-3.581,1.647-6.062,5.708-5.466c0.504,0.01,0.553-2.025,0.563-2.529
	c-3.576,0.939-6.561-1.666-4.972-4.676c3.072-1.458,3.179-6.541,6.677-3.93c0.533-0.992,0.533-0.992,1.086-3.018
	c-3.014-1.585-2.946-5.137-0.388-6.102c2.577-0.963,5.601-0.387,7.112,0.654C409.303,60.13,408.77,61.637,406.715,62.611"/>
<polygon fill="#333333" points="303.171,106.606 303.277,101.533 506.945,101.844 507.353,106.418 "/>
<path fill="#333333" d="M72.098,57.461c9.604,2.752,21.523,15.194,23.354,24.371c3.586-1.449,6.59,0.645,5.514,3.164l0.039,21.843
	l11.164,0.746l-11.348,7.888l-82.777-0.256c-3.518-2.108-7.529-4.221-13.043-7.894l11.687-0.257l0.988-22.327
	c-0.465-1.536,0.572-3.033,2.113-3.513l3.556,0.072c3.77-10.073,12.598-19.541,21.823-23.402c0.514,0.01-1.948-3.59-4.923-7.215
	l13.199,0.281l5.049-45.6l3.595,45.279c4.555,0.605,9.138,0.199,13.712,0.291C74.734,53.453,72.679,54.428,72.098,57.461
	 M93.805,87.385c0.155-7.104-7.297-14.885-14.41-14.526c-8.625-0.698-16.406,6.755-15.563,14.904l-8.625-0.188
	c0.097-4.564-2.83-10.219-5.843-11.809c-2.995-2.602-10.592-3.779-15.708-1.855c-4.089,1.43-8.286,7.433-8.382,12.006l0.048,21.334
	l29.973-0.377l-0.165-15.748l8.625,0.693l-0.33,15.225l29.45,0.131L93.805,87.385z M88.262,85.742
	c-1.405-6.119-7.917-10.33-14.565-7.927c-5.126,2.418-7.278,7.966-6.376,13.067c1.405,5.616,8.44,8.809,14.081,6.904
	C86.498,96.368,88.146,90.825,88.262,85.742 M49.664,85.422c-1.405-5.615-7.917-9.826-13.547-7.912
	c-5.621,1.909-8.295,7.951-6.88,13.063c1.918,5.116,6.425,8.257,12.026,7.878C46.863,97.551,50.546,91.532,49.664,85.422"/>
<path fill="#333333" d="M764.9,57.601c9.594,2.753,21.009,14.667,22.347,23.849c4.069-0.936,6.57,1.158,5.998,4.187l0.049,21.334
	L805,106.713l-12.898,8.871l-82.293,0.268l-12.025-7.879l11.192-0.775l0.484-22.851c-0.465-1.53,2.122-3.513,4.651-2.95
	c3.256-9.574,14.662-21.015,24.382-23.854l-5.456-6.721l14.74-0.193L751.305,5l4.099,45.793l14.196,0.814L764.9,57.601z
	 M784.175,82.395c-1.396-5.616-8.915-10.35-15.03-9.469c-7.636,0.35-14.895,7.812-13.528,14.958l-8.13-0.179
	c-0.862-7.138-5.281-13.824-10.35-14.449c-8.576-2.215-18.354,3.164-19.546,11.261c-0.553,2.534-0.805,13.707-0.484,22.854
	l29.973-0.377l0.843-15.729l7.617,0.17l0.165,15.747l29.973-0.378C784.844,98.67,786.549,90.064,784.175,82.395 M780.58,84.347
	c-2.433-5.131-7.928-8.799-14.081-6.391c-4.622,2.442-7.791,7.96-6.376,13.063c2.412,5.645,8.46,8.314,13.566,6.895
	C779.824,96.02,781.48,89.449,780.58,84.347 M741.981,84.027c-2.432-5.131-7.975-7.283-13.063-6.372
	c-5.63,1.909-7.801,7.961-6.89,13.054c1.395,6.129,8.44,9.327,14.574,7.433C740.741,94.668,744.404,89.667,741.981,84.027"/>
<path fill="#333333" d="M338.444,359.837c0.35,1.55,0.901,3.106,2.607,4.686l-18.916-0.029c5.368-7.017,1.899-16.552,3.033-24.246
	v-17.375c-1.512-1.386-3.644-1.241-6.522-2.073c7.385-1.963,14.022-5.674,19.75-11.141
	C338.822,325.096,337.641,343.804,338.444,359.837 M392.887,341.924c2.587,5.082,1.831,12.781-1.715,16.76
	c-9.274,8.475-24.324,8.537-35.584,3.076c-4.003-2.602-5.466-6.299-6.532-10.566c0.659-3.465,0.746-7.123,3.499-9.574
	c2.374-2.65,5.475-2.971,8.023-5.035c-5.533-3.014-10.621-8.532-9.507-15.268c0.098-4.438,3.479-9.182,8.15-10.819
	c9.903-3.067,25.39-4.651,31.708,6.304c1.269,3.691,2.122,8.533-1.027,11.745c-2.375,2.452-4.71,3.179-7.249,4.666
	C386.064,335.805,390.658,337.626,392.887,341.924 M375.531,358.723c2.529-0.713,4.903-3.373,4.961-6.062
	c0.242-2.511-1.24-5.049-2.937-7.017c-4.186-2.785-8.595-4.434-12.985-6.459c-2.558,2.064-5.116,4.517-5.185,7.792
	c-0.697,5.01,2.113,9.317,5.912,11.517C368.737,359.924,372.227,360.006,375.531,358.723 M381.433,327.199
	c1.812-3.436-0.039-6.949-1.706-9.875c-2.829-3.154-7.035-4.98-11.328-2.955c-2.335,0.91-4.322,3.76-3.982,5.692
	c1.211,6.6,8.498,8.494,13.653,10.927C379.814,330.455,380.24,328.526,381.433,327.199 M419.139,359.1
	c-3.634-1.613-4.71-5.504-4.884-6.08c-2.762-6.042-1.948-16.644,0.91-23.728c4.633-8.771,11.707-14.604,20.815-16.135l1.842-5.17
	c-13.334,1.052-26.01,6.759-33.771,17.593c-5.379,7.593-5.253,19.372-2.733,27.725c2.956,6.057,8.082,10.215,14.41,11.702
	c8.46,1.352,17.938,0.208,23.51-7.195c4.758-5.684,4.331-13.029,2.161-19.638c-2.763-5.844-9.226-9.852-17.134-9.832
	c-0.804,0.94-2.606,3.799-4.573,5.883c1.744-0.359,2.306,0.247,3.459,0.068c2.5,0.832,4.758,2.998,5.688,5.339
	c1.793,5.64,2.588,13.756-2.549,18.664C424.148,359.212,421.436,360.113,419.139,359.1 M486.305,315.619
	c-8.286-9.643-24.498-9.813-33.568-0.932c-4.777,6.838-6.532,15.879-1.871,23.5c3.354,5.485,9.865,7.938,15.854,7.303l4.38-5.887
	c-0.959-0.029-2.703-0.059-3.469-0.268c-3.46-0.654-5.505-4.375-6.396-7.48c-0.649-5.805-0.892-11.789,3.44-16.135
	c1.967-1.498,5.252-1.619,7.355-0.615c7.791,5.586,6.783,16.361,5.437,24.628c-1.396,10.786-12.589,19.411-21.697,20.956
	l-2.627,5.539c13.896-0.078,28.355-7.681,34.81-20.074C493.155,337.195,492.332,321.922,486.305,315.619"/>
</svg>
